<svg xmlns="http://www.w3.org/2000/svg" viewBox="0 0 630.87 220.77"><defs><style>.cls-1{fill:#fff;}.cls-2{fill:#c4d100;}</style></defs><title>Logo_enal</title><g id="Capa_2" data-name="Capa 2"><g id="Capa_2-2" data-name="Capa 2"><path class="cls-1" d="M98.43,117.59v24.16H0V0H96.63V24.16H27.55V58.3H87.24V80.66H27.55v36.93Z"/><path class="cls-1" d="M133.37,50.91v90.84H105.82V0h21.36l73.87,93V.2H228.6V141.75H206.24Z"/><path class="cls-1" d="M289.37,0h24.35l53.91,141.75H339.28L326.1,106.41H276.59l-13,35.34H235.26Zm31.74,87.05L301.55,31.34,281.18,87.05Z"/><path class="cls-1" d="M374.6,141.75V0h27.55V117.59h72.27v24.16Z"/><path class="cls-1" d="M20.38,179.21v1.37H.31V150.19H20v1.37H1.81v12.8H17.73v1.37H1.81v13.48Z"/><path class="cls-1" d="M31.21,181a13.23,13.23,0,0,1-4.79-.86,10.6,10.6,0,0,1-3.94-2.65l.81-1A13.44,13.44,0,0,0,27,179a10.35,10.35,0,0,0,4.2.82,8.79,8.79,0,0,0,5-1.33,4.27,4.27,0,0,0,1.92-3.72,3.32,3.32,0,0,0-.49-1.87,4.27,4.27,0,0,0-1.43-1.28,10.83,10.83,0,0,0-2.34-.94c-.92-.27-2-.55-3.18-.84s-2.29-.56-3.19-.83a9.5,9.5,0,0,1-2.25-1,3.52,3.52,0,0,1-1.33-1.41,5,5,0,0,1-.42-2.19,5.92,5.92,0,0,1,.64-2.86,5.63,5.63,0,0,1,1.73-2,7.66,7.66,0,0,1,2.53-1.18,11.55,11.55,0,0,1,3.06-.39,11,11,0,0,1,4.64.9A6.52,6.52,0,0,1,39,161.15l-1,.73a5.89,5.89,0,0,0-2.76-2,10.8,10.8,0,0,0-3.87-.69,10.91,10.91,0,0,0-2.49.28,6.13,6.13,0,0,0-2,.9,4.4,4.4,0,0,0-1.9,3.79,3.8,3.8,0,0,0,.34,1.71A2.69,2.69,0,0,0,26.35,167a7.64,7.64,0,0,0,1.89.77c.75.22,1.67.45,2.76.71,1.36.31,2.58.63,3.63.94a13.25,13.25,0,0,1,2.7,1.11A4.72,4.72,0,0,1,39,172.15a4.55,4.55,0,0,1,.58,2.39,5.84,5.84,0,0,1-.6,2.68,6.07,6.07,0,0,1-1.69,2,7.79,7.79,0,0,1-2.66,1.31A12.4,12.4,0,0,1,31.21,181Z"/><path class="cls-1" d="M53.89,181a9,9,0,0,1-2.76-.43,10.72,10.72,0,0,1-2.44-1.16,11,11,0,0,1-2.08-1.71,12,12,0,0,1-1.62-2.1V189.7H43.53V158.32H44.9V163a10.71,10.71,0,0,1,1.65-2,11.16,11.16,0,0,1,2.1-1.59,10.59,10.59,0,0,1,2.35-1,8.8,8.8,0,0,1,2.5-.37,9.36,9.36,0,0,1,4.28,1,10.58,10.58,0,0,1,3.38,2.61,12.13,12.13,0,0,1,2.21,3.7,11.69,11.69,0,0,1,.79,4.22,12.91,12.91,0,0,1-.75,4.4,11.38,11.38,0,0,1-2.1,3.66,10.06,10.06,0,0,1-3.23,2.5A9.19,9.19,0,0,1,53.89,181Zm-.21-1.37a7.8,7.8,0,0,0,3.72-.88,9.13,9.13,0,0,0,2.85-2.31,10.87,10.87,0,0,0,1.81-3.25,11.05,11.05,0,0,0,.65-3.7,10.32,10.32,0,0,0-.73-3.81,10.75,10.75,0,0,0-2-3.26,9.82,9.82,0,0,0-3-2.24,8.24,8.24,0,0,0-3.68-.84,7.27,7.27,0,0,0-2.63.54,11.75,11.75,0,0,0-2.61,1.41,9.33,9.33,0,0,0-2.08,2,4.84,4.84,0,0,0-1,2.44v7.66a10.44,10.44,0,0,0,1.47,2.42,11.49,11.49,0,0,0,2,2,9.76,9.76,0,0,0,2.44,1.33A8,8,0,0,0,53.68,179.64Z"/><path class="cls-1" d="M77.47,181a10,10,0,0,1-4.24-.92,11,11,0,0,1-3.44-2.53,11.66,11.66,0,0,1-2.31-3.72,12.14,12.14,0,0,1-.84-4.52,11.9,11.9,0,0,1,.81-4.4,11.35,11.35,0,0,1,2.27-3.6,11,11,0,0,1,3.38-2.44,9.8,9.8,0,0,1,4.2-.9,10.2,10.2,0,0,1,4.28.9A10.75,10.75,0,0,1,85,161.34,11.64,11.64,0,0,1,87.29,165a11.85,11.85,0,0,1,.83,4.45v.34c0,.18,0,.28,0,.3H68.14a11.54,11.54,0,0,0,1,3.83A10.23,10.23,0,0,0,71.16,177a9.56,9.56,0,0,0,2.91,2,8.28,8.28,0,0,0,3.48.75,9.29,9.29,0,0,0,4.58-1.25,7.47,7.47,0,0,0,1.8-1.43,7.16,7.16,0,0,0,1.24-1.82l1.33.34a7.31,7.31,0,0,1-1.37,2.16A8.47,8.47,0,0,1,83,179.49a11.61,11.61,0,0,1-2.63,1.11A10.49,10.49,0,0,1,77.47,181Zm9.2-12.16a11.43,11.43,0,0,0-.9-3.85,10.06,10.06,0,0,0-2-3,9.22,9.22,0,0,0-2.89-2,8.7,8.7,0,0,0-3.51-.7,8.58,8.58,0,0,0-3.51.72A8.93,8.93,0,0,0,71,162a9.91,9.91,0,0,0-2,3,11.55,11.55,0,0,0-.88,3.81Z"/><path class="cls-1" d="M90.14,169.37a12.25,12.25,0,0,1,.81-4.48,11.12,11.12,0,0,1,2.27-3.61A10.53,10.53,0,0,1,101,158a9.93,9.93,0,0,1,5.18,1.35,8.4,8.4,0,0,1,3.38,3.7l-1.41.52a7.76,7.76,0,0,0-3-3.09,8.4,8.4,0,0,0-4.28-1.11,8.67,8.67,0,0,0-3.61.77,9.3,9.3,0,0,0-3,2.12,9.52,9.52,0,0,0-2,3.19,10.93,10.93,0,0,0-.71,3.94,10.47,10.47,0,0,0,.75,3.95,11,11,0,0,0,2,3.28,9.33,9.33,0,0,0,3,2.22,8,8,0,0,0,3.57.82,8.29,8.29,0,0,0,2.46-.37,10.3,10.3,0,0,0,2.25-1,8,8,0,0,0,1.77-1.39,4.1,4.1,0,0,0,1-1.69l1.45.43a6.1,6.1,0,0,1-1.26,2.14,9.11,9.11,0,0,1-2,1.69,10.94,10.94,0,0,1-2.59,1.11A10.54,10.54,0,0,1,101,181a9.91,9.91,0,0,1-4.24-.92,11.25,11.25,0,0,1-3.45-2.51,12,12,0,0,1-3.18-8.21Z"/><path class="cls-1" d="M113.59,152.93v-3.59H115v3.59Zm0,27.65V158.32H115v22.26Z"/><path class="cls-1" d="M126.12,181a7.51,7.51,0,0,1-2.86-.54A7.19,7.19,0,0,1,121,179a6.73,6.73,0,0,1-1.54-2.16,6.4,6.4,0,0,1-.56-2.7,5.14,5.14,0,0,1,.68-2.59,6.45,6.45,0,0,1,1.91-2,9.52,9.52,0,0,1,2.91-1.33,13.88,13.88,0,0,1,3.7-.47,24.3,24.3,0,0,1,3.79.3,16.44,16.44,0,0,1,3.44.9v-2.4a7.4,7.4,0,0,0-1.9-5.33,6.79,6.79,0,0,0-5.12-2,9.68,9.68,0,0,0-3.46.71,16.23,16.23,0,0,0-3.68,2l-.69-1.07c2.86-1.94,5.49-2.91,7.92-2.91a8.17,8.17,0,0,1,6.14,2.31,8.73,8.73,0,0,1,2.25,6.34v11.64c0,.62.25.94.77.94v1.37a.75.75,0,0,1-.24,0h-.19a1.6,1.6,0,0,1-1.22-.53,1.85,1.85,0,0,1-.49-1.31v-2a10.12,10.12,0,0,1-4,3.1A12.73,12.73,0,0,1,126.12,181Zm.18-1.24a12.54,12.54,0,0,0,3.18-.43,11.74,11.74,0,0,0,2.89-1.18,7.78,7.78,0,0,0,2.1-1.73,3.27,3.27,0,0,0,.81-2.1v-4.19a19.49,19.49,0,0,0-7.1-1.29,12.38,12.38,0,0,0-3.21.39,8.42,8.42,0,0,0-2.5,1.07,4.94,4.94,0,0,0-1.63,1.65,4.06,4.06,0,0,0-.58,2.16,5.29,5.29,0,0,0,.47,2.22,5.66,5.66,0,0,0,1.29,1.8,5.91,5.91,0,0,0,1.9,1.2A6.58,6.58,0,0,0,126.3,179.77Z"/><path class="cls-1" d="M142.39,149.34h1.41v27.43a2.6,2.6,0,0,0,.77,2,2.82,2.82,0,0,0,2,.73,7.48,7.48,0,0,0,1.13-.11,6,6,0,0,0,1.22-.32l.35,1.2a11.7,11.7,0,0,1-1.61.38,9,9,0,0,1-1.65.17,3.56,3.56,0,0,1-2.63-1,3.68,3.68,0,0,1-1-2.72Z"/><path class="cls-1" d="M151.46,152.93v-3.59h1.45v3.59Zm0,27.65V158.32h1.45v22.26Z"/><path class="cls-1" d="M165.37,181a13.32,13.32,0,0,1-4.8-.86,10.64,10.64,0,0,1-3.93-2.65l.81-1a13.29,13.29,0,0,0,3.68,2.44,10.31,10.31,0,0,0,4.19.82,8.74,8.74,0,0,0,5.05-1.33,4.25,4.25,0,0,0,1.93-3.72,3.32,3.32,0,0,0-.49-1.87,4.22,4.22,0,0,0-1.44-1.28,10.73,10.73,0,0,0-2.33-.94c-.93-.27-2-.55-3.19-.84s-2.29-.56-3.18-.83a9.5,9.5,0,0,1-2.25-1,3.52,3.52,0,0,1-1.33-1.41,5,5,0,0,1-.43-2.19,5.92,5.92,0,0,1,.65-2.86,5.63,5.63,0,0,1,1.73-2,7.7,7.7,0,0,1,2.52-1.18,11.66,11.66,0,0,1,3.06-.39,11,11,0,0,1,4.65.9,6.64,6.64,0,0,1,2.84,2.27l-1,.73a5.89,5.89,0,0,0-2.76-2,11.2,11.2,0,0,0-6.36-.41,6,6,0,0,0-2,.9,4.4,4.4,0,0,0-1.9,3.79,3.8,3.8,0,0,0,.34,1.71,2.69,2.69,0,0,0,1.09,1.13,7.72,7.72,0,0,0,1.88.77c.76.22,1.68.45,2.76.71,1.37.31,2.58.63,3.64.94a13.49,13.49,0,0,1,2.7,1.11,4.72,4.72,0,0,1,1.69,1.59,4.55,4.55,0,0,1,.58,2.39,5.84,5.84,0,0,1-.61,2.68,6,6,0,0,1-1.68,2,7.79,7.79,0,0,1-2.66,1.31A12.4,12.4,0,0,1,165.37,181Z"/><path class="cls-1" d="M186.93,179.55l-.43.24a8.3,8.3,0,0,1-.91.42,8,8,0,0,1-1.33.41,7.09,7.09,0,0,1-1.65.17,4.55,4.55,0,0,1-2.89-1,3.27,3.27,0,0,1-1.22-2.72v-17.5h-3.16v-1.29h3.16v-7.66H180v7.66h5.26v1.29H180V176.9a2.4,2.4,0,0,0,.94,1.88,3.19,3.19,0,0,0,2,.64,5.51,5.51,0,0,0,1.3-.15,7.06,7.06,0,0,0,1.09-.34,7.29,7.29,0,0,0,.77-.36,3.51,3.51,0,0,0,.35-.22Z"/><path class="cls-1" d="M194.94,181a7.52,7.52,0,0,1-2.87-.54,7.3,7.3,0,0,1-2.31-1.45,6.73,6.73,0,0,1-1.54-2.16,6.56,6.56,0,0,1-.56-2.7,5,5,0,0,1,.69-2.59,6.41,6.41,0,0,1,1.9-2,9.52,9.52,0,0,1,2.91-1.33,13.93,13.93,0,0,1,3.7-.47,24.3,24.3,0,0,1,3.79.3,16.44,16.44,0,0,1,3.44.9v-2.4a7.4,7.4,0,0,0-1.9-5.33,6.76,6.76,0,0,0-5.11-2,9.73,9.73,0,0,0-3.47.71,16.45,16.45,0,0,0-3.68,2l-.68-1.07a14.35,14.35,0,0,1,7.91-2.91,8.15,8.15,0,0,1,6.14,2.31,8.73,8.73,0,0,1,2.25,6.34v11.64c0,.62.26.94.77.94v1.37a.71.71,0,0,1-.24,0h-.19a1.62,1.62,0,0,1-1.22-.53,1.85,1.85,0,0,1-.49-1.31v-2a10,10,0,0,1-4,3.1A12.71,12.71,0,0,1,194.94,181Zm.17-1.24a12.62,12.62,0,0,0,3.19-.43,11.67,11.67,0,0,0,2.88-1.18,7.78,7.78,0,0,0,2.1-1.73,3.27,3.27,0,0,0,.81-2.1v-4.19a19.49,19.49,0,0,0-7.1-1.29,12.38,12.38,0,0,0-3.21.39,8.53,8.53,0,0,0-2.5,1.07,5,5,0,0,0-1.63,1.65,4.16,4.16,0,0,0-.58,2.16,5.15,5.15,0,0,0,.48,2.22,5.63,5.63,0,0,0,1.28,1.8,6,6,0,0,0,1.9,1.2A6.58,6.58,0,0,0,195.11,179.77Z"/><path class="cls-1" d="M217.7,181a13.23,13.23,0,0,1-4.79-.86A10.68,10.68,0,0,1,209,177.5l.82-1a13.14,13.14,0,0,0,3.68,2.44,10.31,10.31,0,0,0,4.19.82,8.77,8.77,0,0,0,5.05-1.33,4.28,4.28,0,0,0,1.93-3.72,3.32,3.32,0,0,0-.5-1.87,4.09,4.09,0,0,0-1.43-1.28,10.94,10.94,0,0,0-2.33-.94c-.93-.27-2-.55-3.19-.84s-2.29-.56-3.19-.83a9.24,9.24,0,0,1-2.24-1,3.45,3.45,0,0,1-1.33-1.41,4.85,4.85,0,0,1-.43-2.19,5.92,5.92,0,0,1,.64-2.86,5.76,5.76,0,0,1,1.74-2,7.51,7.51,0,0,1,2.52-1.18A11.61,11.61,0,0,1,218,158a11,11,0,0,1,4.64.9,6.61,6.61,0,0,1,2.85,2.27l-1,.73a5.89,5.89,0,0,0-2.76-2,11.2,11.2,0,0,0-6.36-.41,6,6,0,0,0-2,.9,4.44,4.44,0,0,0-1.91,3.79,3.8,3.8,0,0,0,.35,1.71,2.63,2.63,0,0,0,1.09,1.13,7.56,7.56,0,0,0,1.88.77c.76.22,1.67.45,2.76.71,1.37.31,2.58.63,3.64.94a13.38,13.38,0,0,1,2.69,1.11,4.64,4.64,0,0,1,1.69,1.59,4.45,4.45,0,0,1,.58,2.39,5.84,5.84,0,0,1-.6,2.68,6.07,6.07,0,0,1-1.69,2,7.74,7.74,0,0,1-2.65,1.31A12.42,12.42,0,0,1,217.7,181Z"/><path class="cls-1" d="M249.07,181a10,10,0,0,1-4.24-.92,11,11,0,0,1-3.44-2.53,11.66,11.66,0,0,1-2.31-3.72,12.14,12.14,0,0,1-.84-4.52,11.71,11.71,0,0,1,.82-4.4,11.15,11.15,0,0,1,2.26-3.6,11,11,0,0,1,3.38-2.44,9.84,9.84,0,0,1,4.2-.9,10.17,10.17,0,0,1,4.28.9,10.75,10.75,0,0,1,3.42,2.46,11.64,11.64,0,0,1,2.29,3.66,11.85,11.85,0,0,1,.83,4.45v.34c0,.18,0,.28,0,.3H239.74a11.54,11.54,0,0,0,1,3.83,10.23,10.23,0,0,0,2.06,3.06,9.56,9.56,0,0,0,2.91,2,8.31,8.31,0,0,0,3.48.75,9.29,9.29,0,0,0,4.58-1.25,7.47,7.47,0,0,0,1.8-1.43,6.91,6.91,0,0,0,1.24-1.82l1.33.34a7.31,7.31,0,0,1-1.37,2.16,8.29,8.29,0,0,1-2.12,1.72A11.61,11.61,0,0,1,252,180.6,10.49,10.49,0,0,1,249.07,181Zm9.2-12.16a11,11,0,0,0-.9-3.85,10.06,10.06,0,0,0-2-3,9.22,9.22,0,0,0-2.89-2,9,9,0,0,0-7,0,8.93,8.93,0,0,0-2.84,2,9.91,9.91,0,0,0-2,3,11.55,11.55,0,0,0-.88,3.81Z"/><path class="cls-1" d="M281,180.58h-1.46V168.17c0-3-.43-5.29-1.3-6.7a4.5,4.5,0,0,0-4.13-2.12,8.6,8.6,0,0,0-3,.56,10.12,10.12,0,0,0-2.76,1.54,11.59,11.59,0,0,0-2.22,2.31,8.9,8.9,0,0,0-1.4,2.91v13.91h-1.45V158.32h1.41v5.57a11,11,0,0,1,1.71-2.42,10.84,10.84,0,0,1,2.31-1.86,12.44,12.44,0,0,1,2.72-1.2,10.39,10.39,0,0,1,2.93-.43,5.52,5.52,0,0,1,5.07,2.51Q281,163,281,168Z"/><path class="cls-1" d="M298.37,153v27.56h-1.5V150.19H298l22.34,28v-28h1.5v30.39h-1.45Z"/><path class="cls-1" d="M337.05,181a9.9,9.9,0,0,1-4.23-.92,11,11,0,0,1-3.45-2.53A12.37,12.37,0,0,1,327,164.92a11.18,11.18,0,0,1,2.27-3.6,10.91,10.91,0,0,1,3.38-2.44,9.76,9.76,0,0,1,4.19-.9,10.17,10.17,0,0,1,4.28.9,10.75,10.75,0,0,1,3.42,2.46,11.46,11.46,0,0,1,2.29,3.66,11.86,11.86,0,0,1,.84,4.45v.34a.64.64,0,0,1,0,.3H327.73a11.54,11.54,0,0,0,1,3.83,10,10,0,0,0,2.05,3.06,9.56,9.56,0,0,0,2.91,2,8.33,8.33,0,0,0,3.49.75,8.69,8.69,0,0,0,2.37-.33,9,9,0,0,0,2.21-.92,7.88,7.88,0,0,0,1.8-1.43,7.42,7.42,0,0,0,1.24-1.82l1.32.34a7.11,7.11,0,0,1-1.37,2.16,8.42,8.42,0,0,1-2.11,1.72A11.69,11.69,0,0,1,340,180.6,10.49,10.49,0,0,1,337.05,181Zm9.2-12.16a11.19,11.19,0,0,0-.89-3.85,10.08,10.08,0,0,0-2-3,9.18,9.18,0,0,0-2.88-2,8.78,8.78,0,0,0-3.52-.7,8.53,8.53,0,0,0-3.5.72,8.86,8.86,0,0,0-2.85,2,10.1,10.1,0,0,0-2,3,11.29,11.29,0,0,0-.87,3.81Z"/><path class="cls-1" d="M360.42,181a9.82,9.82,0,0,1-4.22-.92,11.15,11.15,0,0,1-3.4-2.49,11.3,11.3,0,0,1-2.27-3.65,12.15,12.15,0,0,1-.81-4.41,11.82,11.82,0,0,1,.84-4.45,11.64,11.64,0,0,1,2.28-3.68,11,11,0,0,1,3.41-2.51,9.67,9.67,0,0,1,4.17-.92,9.82,9.82,0,0,1,4.19.92,10.94,10.94,0,0,1,3.43,2.51,11.85,11.85,0,0,1,2.29,3.68,12,12,0,0,1-2.27,12.51,10.72,10.72,0,0,1-3.41,2.49A9.9,9.9,0,0,1,360.42,181Zm-9.24-11.43a10.54,10.54,0,0,0,.72,3.89,10.42,10.42,0,0,0,2,3.21,9.21,9.21,0,0,0,2.93,2.17,8.46,8.46,0,0,0,3.58.79,8.13,8.13,0,0,0,3.61-.82,9.47,9.47,0,0,0,2.95-2.18,9.92,9.92,0,0,0,2-3.23,10.86,10.86,0,0,0,0-7.83,9.92,9.92,0,0,0-2-3.23,9.47,9.47,0,0,0-2.95-2.18,8.05,8.05,0,0,0-3.57-.82,7.87,7.87,0,0,0-3.55.82,9.53,9.53,0,0,0-2.93,2.2,10.67,10.67,0,0,0-2,3.25A10.48,10.48,0,0,0,351.18,169.58Z"/><path class="cls-1" d="M392.94,180.58h-1.45V168.17c0-3-.44-5.29-1.31-6.7a4.49,4.49,0,0,0-4.13-2.12,8.51,8.51,0,0,0-3,.56,10.12,10.12,0,0,0-2.76,1.54,11.36,11.36,0,0,0-2.23,2.31,9.08,9.08,0,0,0-1.39,2.91v13.91h-1.45V158.32h1.41v5.57a10.71,10.71,0,0,1,4-4.28,12.24,12.24,0,0,1,2.72-1.2,10.34,10.34,0,0,1,2.93-.43,5.52,5.52,0,0,1,5.07,2.51q1.56,2.5,1.56,7.51Z"/><path class="cls-1" d="M407.58,181a9.91,9.91,0,0,1-4.24-.92,11,11,0,0,1-3.44-2.53,11.66,11.66,0,0,1-2.31-3.72,12.14,12.14,0,0,1-.84-4.52,11.9,11.9,0,0,1,.81-4.4,11.35,11.35,0,0,1,2.27-3.6,11,11,0,0,1,3.38-2.44,9.8,9.8,0,0,1,4.2-.9,10.2,10.2,0,0,1,4.28.9,10.75,10.75,0,0,1,3.42,2.46A11.64,11.64,0,0,1,417.4,165a11.85,11.85,0,0,1,.83,4.45v.34c0,.18,0,.28,0,.3H398.25a11.54,11.54,0,0,0,1,3.83,10,10,0,0,0,2.06,3.06,9.56,9.56,0,0,0,2.91,2,8.28,8.28,0,0,0,3.48.75,9.29,9.29,0,0,0,4.58-1.25,7.47,7.47,0,0,0,1.8-1.43,7.16,7.16,0,0,0,1.24-1.82l1.33.34a7.31,7.31,0,0,1-1.37,2.16,8.47,8.47,0,0,1-2.12,1.72,11.61,11.61,0,0,1-2.63,1.11A10.49,10.49,0,0,1,407.58,181Zm9.2-12.16a11.43,11.43,0,0,0-.9-3.85,10.06,10.06,0,0,0-2-3,9.22,9.22,0,0,0-2.89-2,8.77,8.77,0,0,0-3.51-.7,8.58,8.58,0,0,0-3.51.72,9.08,9.08,0,0,0-2.85,2,10.08,10.08,0,0,0-2,3,11.3,11.3,0,0,0-.88,3.81Z"/><path class="cls-1" d="M428.59,181a13.23,13.23,0,0,1-4.79-.86,10.6,10.6,0,0,1-3.94-2.65l.81-1a13.44,13.44,0,0,0,3.68,2.44,10.39,10.39,0,0,0,4.2.82,8.79,8.79,0,0,0,5.05-1.33,4.27,4.27,0,0,0,1.92-3.72,3.32,3.32,0,0,0-.49-1.87,4.27,4.27,0,0,0-1.43-1.28,10.83,10.83,0,0,0-2.34-.94c-.92-.27-2-.55-3.18-.84s-2.29-.56-3.19-.83a9.5,9.5,0,0,1-2.25-1,3.52,3.52,0,0,1-1.33-1.41,5,5,0,0,1-.42-2.19,5.92,5.92,0,0,1,.64-2.86,5.73,5.73,0,0,1,1.73-2,7.66,7.66,0,0,1,2.53-1.18,11.55,11.55,0,0,1,3.06-.39,11,11,0,0,1,4.64.9,6.61,6.61,0,0,1,2.85,2.27l-1,.73a5.89,5.89,0,0,0-2.76-2,11.17,11.17,0,0,0-6.35-.41,6.1,6.1,0,0,0-2,.9,4.73,4.73,0,0,0-1.39,1.56,4.62,4.62,0,0,0-.51,2.23,3.8,3.8,0,0,0,.34,1.71,2.69,2.69,0,0,0,1.09,1.13,7.64,7.64,0,0,0,1.89.77c.75.22,1.67.45,2.76.71,1.36.31,2.58.63,3.63.94a13.25,13.25,0,0,1,2.7,1.11,4.72,4.72,0,0,1,1.69,1.59,4.55,4.55,0,0,1,.58,2.39,5.84,5.84,0,0,1-.6,2.68,6.07,6.07,0,0,1-1.69,2,7.7,7.7,0,0,1-2.66,1.31A12.4,12.4,0,0,1,428.59,181Z"/><path class="cls-1" d="M472.49,180.58l-4.23-4.41a12.82,12.82,0,0,1-4.07,3.51,10.91,10.91,0,0,1-5.35,1.33,11.68,11.68,0,0,1-3.51-.54,9.42,9.42,0,0,1-3-1.54,7.78,7.78,0,0,1-2.1-2.46,7.43,7.43,0,0,1-.21-6.21,9.46,9.46,0,0,1,1.54-2.39,15.59,15.59,0,0,1,2.24-2.1c.86-.65,1.76-1.31,2.7-2-.86-.91-1.58-1.72-2.18-2.44a17.59,17.59,0,0,1-1.46-2,7.28,7.28,0,0,1-.79-1.7,5.27,5.27,0,0,1-.23-1.56,5.39,5.39,0,0,1,.55-2.41,6.66,6.66,0,0,1,1.54-2,7.65,7.65,0,0,1,2.31-1.39,8,8,0,0,1,2.87-.51,7.76,7.76,0,0,1,2.63.43,6.1,6.1,0,0,1,2.1,1.2,5.67,5.67,0,0,1,1.37,1.79,5,5,0,0,1,.49,2.18,5.21,5.21,0,0,1-.6,2.47,9.57,9.57,0,0,1-1.6,2.16,20.58,20.58,0,0,1-2.32,2c-.86.66-1.77,1.3-2.71,1.93l9.71,10.14a16.19,16.19,0,0,0,2.14-8.09h1.33a16.88,16.88,0,0,1-.67,4.75,16.33,16.33,0,0,1-1.9,4.28l5.35,5.52ZM459,179.77a9.47,9.47,0,0,0,4.78-1.22,11.74,11.74,0,0,0,3.61-3.28l-10-10.57c-.89.6-1.72,1.21-2.51,1.82a13.66,13.66,0,0,0-2,1.95,8.57,8.57,0,0,0-1.39,2.2,6.22,6.22,0,0,0-.52,2.55,5.61,5.61,0,0,0,.73,2.89,6.58,6.58,0,0,0,1.9,2,8.85,8.85,0,0,0,2.64,1.22A10.63,10.63,0,0,0,459,179.77Zm-5.77-23.63a4.21,4.21,0,0,0,.17,1.18,6.29,6.29,0,0,0,.64,1.43,13.86,13.86,0,0,0,1.31,1.86c.55.7,1.29,1.52,2.2,2.46,1-.68,1.95-1.33,2.78-1.94a18.59,18.59,0,0,0,2.14-1.82,7.12,7.12,0,0,0,1.37-1.82,4.35,4.35,0,0,0,.47-2,4,4,0,0,0-1.48-3.17,5.64,5.64,0,0,0-3.74-1.24,6.45,6.45,0,0,0-2.31.41,6,6,0,0,0-1.86,1.09,5,5,0,0,0-1.24,1.61A4.35,4.35,0,0,0,453.24,156.14Z"/><path class="cls-1" d="M58.62,190H59.9L73,220.34H71.37l-4.49-10.49H51.64l-4.49,10.49H45.52Zm7.79,18.61-7.15-16.73-7.19,16.73Z"/><path class="cls-1" d="M93.62,220.34H92.17V207.93q0-4.58-1.31-6.7a4.49,4.49,0,0,0-4.13-2.12,8.51,8.51,0,0,0-3,.56A10.39,10.39,0,0,0,81,201.21a11.36,11.36,0,0,0-2.23,2.31,9.08,9.08,0,0,0-1.39,2.91v13.91H75.91V198.09h1.41v5.56A10.41,10.41,0,0,1,79,201.23a10.66,10.66,0,0,1,2.31-1.86,12.24,12.24,0,0,1,2.72-1.2,10.33,10.33,0,0,1,2.93-.42,5.51,5.51,0,0,1,5.07,2.5q1.56,2.5,1.56,7.51Z"/><path class="cls-1" d="M105.9,220.77a6.08,6.08,0,0,1-5.3-2.53c-1.2-1.68-1.8-4.17-1.8-7.49V198.09h1.46v12.49q0,8.82,5.94,8.82a8.46,8.46,0,0,0,3-.54,9.93,9.93,0,0,0,2.67-1.47,10.29,10.29,0,0,0,2.14-2.27,11.1,11.1,0,0,0,1.43-2.91V198.09h1.46V218c0,.63.26.94.77.94v1.37a1.74,1.74,0,0,1-.43,0,1.66,1.66,0,0,1-1.2-.53,1.83,1.83,0,0,1-.51-1.31v-3.68a11,11,0,0,1-4,4.32A10.38,10.38,0,0,1,105.9,220.77Z"/><path class="cls-1" d="M140.31,220.34h-1.45V207.93q0-4.58-1.31-6.7a4.5,4.5,0,0,0-4.13-2.12,8.6,8.6,0,0,0-3,.56,10.71,10.71,0,0,0-2.76,1.54,11.59,11.59,0,0,0-2.22,2.31,8.88,8.88,0,0,0-1.39,2.91v13.91h-1.46V198.09H124v5.56a10.41,10.41,0,0,1,1.71-2.42,10.66,10.66,0,0,1,2.31-1.86,12,12,0,0,1,2.72-1.2,10.33,10.33,0,0,1,2.93-.42,5.51,5.51,0,0,1,5.07,2.5q1.56,2.5,1.56,7.51Z"/><path class="cls-1" d="M144.12,209.13a12.16,12.16,0,0,1,.81-4.47A11.06,11.06,0,0,1,147.2,201a10.47,10.47,0,0,1,7.75-3.29,9.89,9.89,0,0,1,5.17,1.34,8.31,8.31,0,0,1,3.38,3.71l-1.41.51a7.77,7.77,0,0,0-3-3.08,8.44,8.44,0,0,0-4.28-1.12,8.68,8.68,0,0,0-3.62.77,9.45,9.45,0,0,0-2.95,2.12,9.79,9.79,0,0,0-2,3.19,10.93,10.93,0,0,0-.71,3.94,10.49,10.49,0,0,0,.75,4,11.07,11.07,0,0,0,2,3.27,9.36,9.36,0,0,0,3,2.23,8.12,8.12,0,0,0,3.57.81,8.29,8.29,0,0,0,2.46-.37,10.3,10.3,0,0,0,2.25-1,8,8,0,0,0,1.77-1.39,4.1,4.1,0,0,0,1-1.69l1.45.43a6,6,0,0,1-1.26,2.14,8.64,8.64,0,0,1-2,1.69,10.94,10.94,0,0,1-2.59,1.11,10.49,10.49,0,0,1-2.91.41,10,10,0,0,1-4.24-.92,11.06,11.06,0,0,1-3.44-2.5,12,12,0,0,1-3.19-8.22Z"/><path class="cls-1" d="M167.57,192.7v-3.6H169v3.6Zm0,27.64V198.09H169v22.25Z"/><path class="cls-1" d="M183.83,220.77a9.75,9.75,0,0,1-4.21-.92,11,11,0,0,1-3.41-2.48,11.41,11.41,0,0,1-2.27-3.66,12.15,12.15,0,0,1-.81-4.41,11.86,11.86,0,0,1,.84-4.45,11.66,11.66,0,0,1,2.29-3.68,10.74,10.74,0,0,1,3.4-2.5,9.56,9.56,0,0,1,4.17-.92,9.67,9.67,0,0,1,4.19.92,10.65,10.65,0,0,1,3.43,2.5,11.85,11.85,0,0,1,2.29,3.68,12.24,12.24,0,0,1,0,8.86,11.77,11.77,0,0,1-2.27,3.66,10.77,10.77,0,0,1-3.4,2.48A10,10,0,0,1,183.83,220.77Zm-9.24-11.43a10.7,10.7,0,0,0,2.69,7.11,9.26,9.26,0,0,0,2.94,2.16,8.46,8.46,0,0,0,7.18,0,9.67,9.67,0,0,0,3-2.18,10.43,10.43,0,0,0,2-3.24,11,11,0,0,0,0-7.83,10.38,10.38,0,0,0-2-3.23,9.67,9.67,0,0,0-3-2.18,8.12,8.12,0,0,0-3.57-.82,8,8,0,0,0-3.55.82,9.53,9.53,0,0,0-2.93,2.2,10.77,10.77,0,0,0-2.76,7.21Z"/><path class="cls-1" d="M205.4,220.77a13.23,13.23,0,0,1-4.79-.86,10.6,10.6,0,0,1-3.94-2.65l.81-1a13.62,13.62,0,0,0,3.68,2.43,10.35,10.35,0,0,0,4.2.82,8.71,8.71,0,0,0,5-1.33,4.27,4.27,0,0,0,1.92-3.72,3.28,3.28,0,0,0-.49-1.86,4.19,4.19,0,0,0-1.43-1.29,11.37,11.37,0,0,0-2.34-.94c-.92-.27-2-.55-3.18-.83s-2.29-.57-3.19-.84a9.5,9.5,0,0,1-2.25-1,3.52,3.52,0,0,1-1.33-1.41,5,5,0,0,1-.42-2.19,6,6,0,0,1,.64-2.86,5.82,5.82,0,0,1,1.73-2,7.66,7.66,0,0,1,2.53-1.18,11.56,11.56,0,0,1,3.06-.38,11.17,11.17,0,0,1,4.64.89,6.52,6.52,0,0,1,2.84,2.27l-1,.73a5.89,5.89,0,0,0-2.76-2,11,11,0,0,0-3.87-.68,10.77,10.77,0,0,0-2.48.27,6.1,6.1,0,0,0-2,.9,4.66,4.66,0,0,0-1.39,1.57,4.55,4.55,0,0,0-.51,2.22,3.78,3.78,0,0,0,.34,1.71,2.77,2.77,0,0,0,1.09,1.14,8,8,0,0,0,1.89.77c.75.21,1.67.45,2.76.7,1.36.32,2.58.63,3.63.94a12.69,12.69,0,0,1,2.7,1.12,4.17,4.17,0,0,1,2.27,4,5.8,5.8,0,0,1-.6,2.67,6,6,0,0,1-1.69,2,7.53,7.53,0,0,1-2.66,1.31A12.4,12.4,0,0,1,205.4,220.77Z"/><path class="cls-1" d="M228.16,220.34V190h1.5v29h18.62v1.37Z"/><path class="cls-1" d="M257.69,220.77a6.09,6.09,0,0,1-5.31-2.53c-1.19-1.68-1.79-4.17-1.79-7.49V198.09H252v12.49q0,8.82,6,8.82a8.41,8.41,0,0,0,2.95-.54,10.14,10.14,0,0,0,2.68-1.47,10.53,10.53,0,0,0,2.14-2.27,11.1,11.1,0,0,0,1.43-2.91V198.09h1.46V218c0,.63.25.94.77.94v1.37a1.8,1.8,0,0,1-.43,0,1.62,1.62,0,0,1-1.2-.53,1.83,1.83,0,0,1-.51-1.31v-3.68a11,11,0,0,1-4,4.32A10.35,10.35,0,0,1,257.69,220.77Z"/><path class="cls-1" d="M306.69,220.34h-1.45V207.93c0-3-.47-5.25-1.39-6.67a4.73,4.73,0,0,0-4.26-2.15,7.29,7.29,0,0,0-2.83.56,8.44,8.44,0,0,0-2.39,1.52,9.73,9.73,0,0,0-1.89,2.33,12.11,12.11,0,0,0-1.24,3v13.86h-1.45V207.93q0-4.58-1.35-6.7a4.69,4.69,0,0,0-4.26-2.12,7.51,7.51,0,0,0-5.18,2,11,11,0,0,0-3.16,5.3v13.91h-1.46V198.09h1.41v5.56a11.38,11.38,0,0,1,3.64-4.36,8.44,8.44,0,0,1,4.92-1.54,6.34,6.34,0,0,1,4.6,1.71,7.26,7.26,0,0,1,2.12,4.53q3.3-6.24,8.82-6.24a5.71,5.71,0,0,1,5.18,2.54q1.62,2.55,1.62,7.47Z"/><path class="cls-1" d="M312.08,192.7v-3.6h1.46v3.6Zm0,27.64V198.09h1.46v22.25Z"/><path class="cls-1" d="M337,220.34h-1.46V207.93q0-4.58-1.3-6.7a4.5,4.5,0,0,0-4.13-2.12,8.6,8.6,0,0,0-3,.56,10.39,10.39,0,0,0-2.76,1.54,11.92,11.92,0,0,0-2.23,2.31,9.08,9.08,0,0,0-1.39,2.91v13.91h-1.45V198.09h1.41v5.56a11,11,0,0,1,1.71-2.42,11.16,11.16,0,0,1,2.31-1.86,12.24,12.24,0,0,1,2.72-1.2,10.38,10.38,0,0,1,2.93-.42,5.51,5.51,0,0,1,5.07,2.5c1,1.67,1.57,4.17,1.57,7.51Z"/><path class="cls-1" d="M351.45,220.77a9.78,9.78,0,0,1-4.21-.92,11,11,0,0,1-3.4-2.48,11.24,11.24,0,0,1-2.27-3.66,12.16,12.16,0,0,1-.82-4.41,12,12,0,0,1,3.13-8.13,10.74,10.74,0,0,1,3.4-2.5,9.56,9.56,0,0,1,4.17-.92,9.72,9.72,0,0,1,4.2.92,10.71,10.71,0,0,1,3.42,2.5,12.07,12.07,0,0,1,0,16.2,10.65,10.65,0,0,1-3.4,2.48A9.91,9.91,0,0,1,351.45,220.77Zm-9.24-11.43a10.64,10.64,0,0,0,2.7,7.11,9.11,9.11,0,0,0,2.93,2.16,8.48,8.48,0,0,0,7.19,0,9.75,9.75,0,0,0,3-2.18,10.43,10.43,0,0,0,2-3.24,10.86,10.86,0,0,0,0-7.83,10.38,10.38,0,0,0-2-3.23,9.75,9.75,0,0,0-3-2.18,8.2,8.2,0,0,0-3.58-.82,8,8,0,0,0-3.55.82,9.53,9.53,0,0,0-2.93,2.2,10.85,10.85,0,0,0-2,3.25A10.56,10.56,0,0,0,342.21,209.34Z"/><path class="cls-1" d="M373,220.77a13.23,13.23,0,0,1-4.79-.86,10.6,10.6,0,0,1-3.94-2.65l.81-1a13.62,13.62,0,0,0,3.68,2.43,10.39,10.39,0,0,0,4.2.82,8.71,8.71,0,0,0,5-1.33,4.27,4.27,0,0,0,1.92-3.72,3.28,3.28,0,0,0-.49-1.86,4.19,4.19,0,0,0-1.43-1.29,11.37,11.37,0,0,0-2.34-.94c-.92-.27-2-.55-3.18-.83s-2.29-.57-3.19-.84a9.5,9.5,0,0,1-2.25-1,3.52,3.52,0,0,1-1.33-1.41,5,5,0,0,1-.42-2.19,6,6,0,0,1,.64-2.86,5.82,5.82,0,0,1,1.73-2,7.66,7.66,0,0,1,2.53-1.18,11.56,11.56,0,0,1,3.06-.38,11.17,11.17,0,0,1,4.64.89,6.61,6.61,0,0,1,2.85,2.27l-1,.73a5.89,5.89,0,0,0-2.76-2,11,11,0,0,0-3.87-.68,10.83,10.83,0,0,0-2.48.27,6.1,6.1,0,0,0-2,.9,4.76,4.76,0,0,0-1.39,1.57,4.55,4.55,0,0,0-.51,2.22,3.78,3.78,0,0,0,.34,1.71,2.77,2.77,0,0,0,1.09,1.14,8,8,0,0,0,1.89.77c.75.21,1.67.45,2.76.7,1.36.32,2.58.63,3.63.94a12.69,12.69,0,0,1,2.7,1.12,4.17,4.17,0,0,1,2.27,4,5.8,5.8,0,0,1-.6,2.67,6,6,0,0,1-1.69,2,7.53,7.53,0,0,1-2.66,1.31A12.4,12.4,0,0,1,373,220.77Z"/><path class="cls-1" d="M394.46,220.77a9.82,9.82,0,0,1-4.22-.92,11.11,11.11,0,0,1-3.4-2.48,11.41,11.41,0,0,1-2.27-3.66,12.15,12.15,0,0,1-.81-4.41,11.86,11.86,0,0,1,.84-4.45,11.64,11.64,0,0,1,2.28-3.68,10.78,10.78,0,0,1,3.41-2.5,9.56,9.56,0,0,1,4.17-.92,9.67,9.67,0,0,1,4.19.92,10.75,10.75,0,0,1,3.43,2.5,11.85,11.85,0,0,1,2.29,3.68,12.07,12.07,0,0,1-2.27,12.52,10.77,10.77,0,0,1-3.4,2.48A10,10,0,0,1,394.46,220.77Zm-9.24-11.43a10.57,10.57,0,0,0,2.69,7.11,9.33,9.33,0,0,0,2.93,2.16,8.31,8.31,0,0,0,3.58.79,8.22,8.22,0,0,0,3.61-.81,9.8,9.8,0,0,0,3-2.18,10.43,10.43,0,0,0,2-3.24,11,11,0,0,0,0-7.83,10.38,10.38,0,0,0-2-3.23,9.8,9.8,0,0,0-3-2.18,8.16,8.16,0,0,0-3.57-.82,8,8,0,0,0-3.55.82,9.53,9.53,0,0,0-2.93,2.2,10.64,10.64,0,0,0-2.76,7.21Z"/><path class="cls-1" d="M416,220.77a13.32,13.32,0,0,1-4.8-.86,10.64,10.64,0,0,1-3.93-2.65l.81-1a13.47,13.47,0,0,0,3.68,2.43,10.34,10.34,0,0,0,4.19.82,8.67,8.67,0,0,0,5-1.33,4.25,4.25,0,0,0,1.93-3.72,3.28,3.28,0,0,0-.49-1.86,4.14,4.14,0,0,0-1.44-1.29,11,11,0,0,0-2.33-.94c-.93-.27-2-.55-3.19-.83s-2.29-.57-3.18-.84a9.5,9.5,0,0,1-2.25-1,3.52,3.52,0,0,1-1.33-1.41,5,5,0,0,1-.43-2.19,6,6,0,0,1,.65-2.86,5.71,5.71,0,0,1,1.73-2,7.7,7.7,0,0,1,2.52-1.18,11.66,11.66,0,0,1,3.06-.38,11.18,11.18,0,0,1,4.65.89,6.58,6.58,0,0,1,2.84,2.27l-1,.73a5.89,5.89,0,0,0-2.76-2,11.45,11.45,0,0,0-6.36-.41,6,6,0,0,0-2,.9,4.66,4.66,0,0,0-1.39,1.57,4.55,4.55,0,0,0-.51,2.22,3.78,3.78,0,0,0,.34,1.71,2.77,2.77,0,0,0,1.09,1.14,8.14,8.14,0,0,0,1.88.77c.76.21,1.68.45,2.76.7,1.37.32,2.58.63,3.64.94a12.69,12.69,0,0,1,2.7,1.12,4.17,4.17,0,0,1,2.27,4,5.8,5.8,0,0,1-.6,2.67,6.09,6.09,0,0,1-1.69,2,7.61,7.61,0,0,1-2.66,1.31A12.4,12.4,0,0,1,416,220.77Z"/><rect class="cls-2" x="495.56" y="10.49" width="50" height="50" transform="translate(177.57 -357.7) rotate(45)"/><rect class="cls-2" x="533.04" y="47.97" width="50" height="50" transform="translate(215.04 -373.22) rotate(45)"/><rect class="cls-2" x="495.56" y="85.45" width="50" height="50" transform="translate(230.57 -335.75) rotate(45)"/><rect class="cls-2" x="570.52" y="85.45" width="50" height="50" transform="translate(252.52 -388.75) rotate(45)"/><rect class="cls-2" x="533.04" y="122.92" width="50" height="50" transform="translate(268.04 -351.27) rotate(45)"/><rect class="cls-2" x="495.68" y="160.28" width="50" height="50" transform="translate(283.52 -313.91) rotate(45)"/></g></g></svg>